# Blender v3.2.2 OBJ File: 'spaceship.blend'
# www.blender.org
o Cube.001
v -0.588000 -0.400000 -0.810000
v -0.588000 0.400000 -0.810000
v 0.588000 -0.400000 -0.810000
v 0.588000 0.400000 -0.810000
v -0.588000 -0.400000 0.000000
v -0.588000 0.400000 0.000000
v 0.588000 -0.400000 0.000000
v 0.588000 0.400000 0.000000
v -0.470400 -0.320000 0.000000
v -0.470400 -0.320000 0.810000
v -0.470400 0.320000 0.810000
v 0.470400 0.320000 0.000000
v 0.470400 0.320000 0.810000
v 0.470400 -0.320000 0.810000
v -0.470400 0.320000 0.000000
v 0.470400 -0.320000 0.000000
vt 0.601229 0.744247
vt 0.549699 0.770012
vt 0.549699 0.744247
vt 0.601229 0.770012
vt 0.549699 0.821542
vt 0.549699 0.847307
vt 0.498169 0.847307
vt 0.498169 0.847307
vt 0.549699 0.744247
vt 0.601229 0.744247
vt 0.652759 0.847307
vt 0.601229 0.847307
vt 0.601229 0.847307
vt 0.652759 0.821542
vt 0.601229 0.821542
vt 0.498169 0.821542
vt 0.549699 0.847307
vt 0.549699 0.873072
vt 0.601229 0.873072
vt 0.549699 0.924603
vt 0.498169 0.873072
vt 0.652759 0.847307
vt 0.601229 0.718482
vt 0.549699 0.718482
vt 0.601229 0.924603
vt 0.652759 0.873072
vn -1.0000 0.0000 0.0000
vn 0.0000 0.0000 -1.0000
vn 0.0000 0.0000 1.0000
vn 0.0000 1.0000 0.0000
vn 0.0000 -1.0000 0.0000
vn 1.0000 0.0000 0.0000
s off
f 6/1/1 1/2/1 5/3/1
f 2/4/2 3/5/2 1/2/2
f 7/6/3 9/7/3 5/8/3
f 6/1/3 9/9/3 15/10/3
f 6/11/3 12/12/3 8/13/3
f 2/14/4 8/13/4 4/15/4
f 3/5/5 5/8/5 1/16/5
f 4/15/6 7/6/6 3/5/6
f 7/6/3 12/12/3 16/17/3
f 12/12/6 14/18/6 16/17/6
f 13/19/3 10/20/3 14/18/3
f 16/17/5 10/21/5 9/7/5
f 15/22/4 13/19/4 12/12/4
f 11/23/1 9/9/1 10/24/1
f 6/1/1 2/4/1 1/2/1
f 2/4/2 4/15/2 3/5/2
f 7/6/3 16/17/3 9/7/3
f 6/1/3 5/3/3 9/9/3
f 6/11/3 15/22/3 12/12/3
f 2/14/4 6/11/4 8/13/4
f 3/5/5 7/6/5 5/8/5
f 4/15/6 8/13/6 7/6/6
f 7/6/3 8/13/3 12/12/3
f 12/12/6 13/19/6 14/18/6
f 13/19/3 11/25/3 10/20/3
f 16/17/5 14/18/5 10/21/5
f 15/22/4 11/26/4 13/19/4
f 11/23/1 15/10/1 9/9/1
o Cube.002
v -0.400000 -0.100000 -0.700000
v -0.400000 0.100000 -0.700000
v -0.400000 -0.100000 -0.900000
v -0.400000 0.100000 -0.900000
v -0.200000 -0.100000 -0.700000
v -0.200000 0.100000 -0.700000
v -0.200000 -0.100000 -0.900000
v -0.200000 0.100000 -0.900000
v -0.500000 0.200000 -0.900000
v -0.500000 -0.200000 -0.900000
v -0.100000 -0.200000 -0.900000
v -0.100000 0.200000 -0.900000
v -0.500000 0.200000 -1.000000
v -0.500000 -0.200000 -1.000000
v -0.100000 -0.200000 -1.000000
v -0.100000 0.200000 -1.000000
v 0.400000 -0.100000 -0.700000
v 0.400000 0.100000 -0.700000
v 0.400000 -0.100000 -0.900000
v 0.400000 0.100000 -0.900000
v 0.200000 -0.100000 -0.700000
v 0.200000 0.100000 -0.700000
v 0.200000 -0.100000 -0.900000
v 0.200000 0.100000 -0.900000
v 0.500000 0.200000 -0.900000
v 0.500000 -0.200000 -0.900000
v 0.100000 -0.200000 -0.900000
v 0.100000 0.200000 -0.900000
v 0.500000 0.200000 -1.000000
v 0.500000 -0.200000 -1.000000
v 0.100000 -0.200000 -1.000000
v 0.100000 0.200000 -1.000000
vt 0.211227 0.779053
vt 0.171937 0.818343
vt 0.171937 0.779053
vt 0.171937 0.857634
vt 0.211227 0.857634
vt 0.211227 0.857634
vt 0.171937 0.896924
vt 0.211227 0.896924
vt 0.171937 0.936215
vt 0.132646 0.896924
vt 0.132646 0.857634
vt 0.250517 0.857634
vt 0.171937 0.857634
vt 0.211227 0.857634
vt 0.250517 0.857634
vt 0.211227 0.818343
vt 0.171937 0.818343
vt 0.211227 0.838454
vt 0.171937 0.877744
vt 0.171937 0.838454
vt 0.132646 0.857634
vt 0.171937 0.857634
vt 0.250517 0.857634
vt 0.211227 0.818343
vt 0.171937 0.818343
vt 0.171937 0.818343
vt 0.211227 0.779053
vt 0.171937 0.779053
vt 0.211227 0.857634
vt 0.171937 0.857634
vt 0.211227 0.857634
vt 0.171937 0.896924
vt 0.171937 0.936215
vt 0.211227 0.896924
vt 0.132646 0.896924
vt 0.132646 0.857634
vt 0.250517 0.857634
vt 0.211227 0.857634
vt 0.171937 0.857634
vt 0.250517 0.857634
vt 0.171937 0.818343
vt 0.211227 0.818343
vt 0.171937 0.877744
vt 0.211227 0.838454
vt 0.171937 0.838454
vt 0.171937 0.857634
vt 0.132646 0.857634
vt 0.250517 0.857634
vt 0.171937 0.818343
vt 0.211227 0.818343
vt 0.211227 0.936215
vt 0.250517 0.896924
vt 0.211227 0.877744
vt 0.132646 0.857634
vt 0.211227 0.818343
vt 0.211227 0.936215
vt 0.250517 0.896924
vt 0.211227 0.877744
vt 0.132646 0.857634
vt 0.211227 0.818343
vn -1.0000 0.0000 0.0000
vn -0.0000 0.0000 1.0000
vn 1.0000 0.0000 0.0000
vn 0.0000 -1.0000 0.0000
vn 0.0000 1.0000 0.0000
vn 0.0000 0.0000 -1.0000
s off
f 18/27/7 19/28/7 17/29/7
f 23/30/8 28/31/8 24/32/8
f 24/32/9 21/33/9 23/30/9
f 22/34/8 17/35/8 21/33/8
f 23/30/10 17/36/10 19/37/10
f 20/38/11 22/34/11 24/32/11
f 27/39/9 32/40/9 28/31/9
f 19/37/8 27/39/8 23/30/8
f 24/32/8 25/41/8 20/38/8
f 20/42/8 26/43/8 19/28/8
f 29/44/12 31/45/12 30/46/12
f 26/47/10 31/48/10 27/39/10
f 28/31/11 29/49/11 25/41/11
f 25/50/7 30/51/7 26/43/7
f 35/52/9 34/53/9 33/54/9
f 44/55/8 39/56/8 40/57/8
f 37/58/7 40/57/7 39/56/7
f 33/59/8 38/60/8 37/58/8
f 33/61/10 39/56/10 35/62/10
f 38/60/11 36/63/11 40/57/11
f 48/64/7 43/65/7 44/55/7
f 43/65/8 35/62/8 39/56/8
f 41/66/8 40/57/8 36/63/8
f 42/67/8 36/68/8 35/52/8
f 47/69/12 45/70/12 46/71/12
f 47/72/10 42/73/10 43/65/10
f 45/74/11 44/55/11 41/66/11
f 46/75/9 41/76/9 42/67/9
f 18/27/7 20/42/7 19/28/7
f 23/30/8 27/39/8 28/31/8
f 24/32/9 22/34/9 21/33/9
f 22/34/8 18/77/8 17/35/8
f 23/30/10 21/33/10 17/36/10
f 20/38/11 18/78/11 22/34/11
f 27/39/9 31/48/9 32/40/9
f 19/37/8 26/47/8 27/39/8
f 24/32/8 28/31/8 25/41/8
f 20/42/8 25/50/8 26/43/8
f 29/44/12 32/79/12 31/45/12
f 26/47/10 30/80/10 31/48/10
f 28/31/11 32/40/11 29/49/11
f 25/50/7 29/81/7 30/51/7
f 35/52/9 36/68/9 34/53/9
f 44/55/8 43/65/8 39/56/8
f 37/58/7 38/60/7 40/57/7
f 33/59/8 34/82/8 38/60/8
f 33/61/10 37/58/10 39/56/10
f 38/60/11 34/83/11 36/63/11
f 48/64/7 47/72/7 43/65/7
f 43/65/8 42/73/8 35/62/8
f 41/66/8 44/55/8 40/57/8
f 42/67/8 41/76/8 36/68/8
f 47/69/12 48/84/12 45/70/12
f 47/72/10 46/85/10 42/73/10
f 45/74/11 48/64/11 44/55/11
f 46/75/9 45/86/9 41/76/9
o Cube.003
v -0.300000 -0.100000 0.300000
v -0.300000 0.500000 0.300000
v -0.300000 -0.100000 -0.600000
v -0.300000 0.500000 -0.600000
v 0.300000 -0.100000 0.300000
v 0.300000 0.500000 0.300000
v 0.300000 -0.100000 -0.600000
v 0.300000 0.500000 -0.600000
v -0.210000 -0.010000 0.300000
v -0.210000 0.410000 0.300000
v 0.210000 0.410000 0.300000
v 0.210000 -0.010000 0.300000
v -0.210000 -0.010000 0.600000
v -0.210000 0.410000 0.600000
v 0.210000 0.410000 0.600000
v 0.210000 -0.010000 0.600000
vt 0.142555 0.754627
vt 0.097029 0.800153
vt 0.097029 0.754627
vt 0.142555 0.800153
vt 0.097029 0.845680
vt 0.142555 0.845680
vt 0.097029 0.891206
vt 0.142555 0.891206
vt 0.188081 0.891206
vt 0.142555 0.891206
vt 0.051502 0.891206
vt 0.051502 0.845680
vt 0.188081 0.845680
vt 0.925598 0.214288
vt 0.888394 0.214288
vt 0.888394 0.214288
vt 0.097029 0.891206
vt 0.097029 0.754627
vt 0.142555 0.754627
vt 0.051502 0.891206
vt 0.851189 0.251492
vt 0.851189 0.214288
vt 0.851189 0.214288
vt 0.813985 0.214288
vt 0.813985 0.214288
vt 0.851189 0.102675
vt 0.888394 0.102675
vt 0.888394 0.102675
vt 0.188081 0.891206
vt 0.925598 0.214288
vt 0.888394 0.251492
vt 0.851189 0.102675
vn -1.0000 0.0000 0.0000
vn 0.0000 0.0000 -1.0000
vn 1.0000 0.0000 0.0000
vn 0.0000 0.0000 1.0000
vn 0.0000 -1.0000 0.0000
vn 0.0000 1.0000 0.0000
s off
f 50/87/13 51/88/13 49/89/13
f 52/90/14 55/91/14 51/88/14
f 56/92/15 53/93/15 55/91/15
f 54/94/16 58/95/16 59/96/16
f 55/91/17 49/97/17 51/98/17
f 52/99/18 54/94/18 56/92/18
f 58/100/18 63/101/18 59/102/18
f 53/93/16 59/96/16 60/103/16
f 50/87/16 57/104/16 58/105/16
f 53/93/16 57/106/16 49/97/16
f 63/101/16 61/107/16 64/108/16
f 59/102/15 64/108/15 60/109/15
f 60/109/17 61/110/17 57/111/17
f 57/112/13 62/113/13 58/114/13
f 50/87/13 52/90/13 51/88/13
f 52/90/14 56/92/14 55/91/14
f 56/92/15 54/94/15 53/93/15
f 54/94/16 50/115/16 58/95/16
f 55/91/17 53/93/17 49/97/17
f 52/99/18 50/115/18 54/94/18
f 58/100/18 62/116/18 63/101/18
f 53/93/16 54/94/16 59/96/16
f 50/87/16 49/89/16 57/104/16
f 53/93/16 60/103/16 57/106/16
f 63/101/16 62/117/16 61/107/16
f 59/102/15 63/101/15 64/108/15
f 60/109/17 64/108/17 61/110/17
f 57/112/13 61/118/13 62/113/13
o Cube.004
v -0.770000 -0.100000 0.600000
v -0.770000 0.100000 0.600000
v 0.770000 -0.100000 0.600000
v 0.770000 0.100000 0.600000
v 0.770000 -0.100000 -0.600000
v -0.770000 0.100000 0.000000
v 0.770000 -0.100000 0.000000
v -0.770000 0.100000 -0.600000
v -0.770000 -0.100000 -0.600000
v 0.770000 0.100000 -0.600000
v -0.770000 -0.100000 0.000000
v 0.770000 0.100000 0.000000
v 0.770000 -0.070000 -0.090000
v 0.770000 -0.070000 -0.510000
v -0.770000 0.070000 -0.510000
v -0.770000 -0.070000 -0.510000
v -0.770000 -0.070000 -0.090000
v 0.770000 0.070000 -0.510000
v 0.770000 0.070000 -0.090000
v -0.980000 0.070000 -0.090000
v -0.980000 0.070000 -0.510000
v -0.980000 -0.070000 -0.510000
v 0.980000 0.070000 -0.510000
v 0.980000 -0.070000 -0.510000
v 0.980000 -0.070000 -0.090000
v -0.980000 -0.070000 -0.090000
v 0.980000 0.070000 -0.090000
v -0.770000 0.070000 -0.090000
vt 0.520962 0.458076
vt 0.479038 0.500000
vt 0.479038 0.458076
vt 0.520962 0.520962
vt 0.479038 0.541924
vt 0.479038 0.520962
vt 0.520962 0.541924
vt 0.479038 0.583848
vt 0.437114 0.541924
vt 0.437114 0.520962
vt 0.562886 0.520962
vt 0.562886 0.500000
vt 0.520962 0.500000
vt 0.437114 0.500000
vt 0.520962 0.416152
vt 0.479038 0.437114
vt 0.479038 0.416152
vt 0.562886 0.520962
vt 0.437114 0.520962
vt 0.437114 0.500000
vt 0.520962 0.437114
vt 0.479038 0.437114
vt 0.479038 0.520962
vt 0.479038 0.500000
vt 0.520962 0.458076
vt 0.520962 0.520962
vt 0.520962 0.500000
vt 0.890754 0.526170
vt 0.890754 0.505208
vt 0.890754 0.505208
vt 0.890754 0.442322
vt 0.848830 0.442322
vt 0.848830 0.442322
vt 0.890754 0.442322
vt 0.848830 0.463284
vt 0.848830 0.526170
vt 0.848830 0.505208
vt 0.848830 0.505208
vt 0.848830 0.526170
vt 0.848830 0.463284
vt 0.890754 0.463284
vt 0.890754 0.463284
vt 0.890754 0.526170
vt 0.806906 0.526170
vt 0.806906 0.505208
vt 0.806906 0.505208
vt 0.932678 0.505208
vt 0.932678 0.526170
vt 0.932678 0.526170
vt 0.520962 0.583848
vt 0.562886 0.541924
vt 0.562886 0.500000
vt 0.520962 0.437114
vt 0.479038 0.458076
vt 0.806906 0.526170
vt 0.932678 0.505208
vn 0.0000 0.0000 -1.0000
vn 1.0000 0.0000 0.0000
vn 0.0000 0.0000 1.0000
vn 0.0000 -1.0000 0.0000
vn 0.0000 1.0000 0.0000
vn -1.0000 0.0000 0.0000
s off
f 72/119/19 69/120/19 73/121/19
f 76/122/20 67/123/20 71/124/20
f 68/125/21 65/126/21 67/123/21
f 71/124/22 65/127/22 75/128/22
f 70/129/23 68/125/23 76/122/23
f 72/130/23 76/122/23 74/131/23
f 69/120/22 75/128/22 73/132/22
f 66/133/24 75/134/24 65/135/24
f 72/130/24 92/136/24 70/129/24
f 73/132/24 81/137/24 80/138/24
f 70/139/24 81/140/24 75/134/24
f 69/120/20 77/141/20 71/124/20
f 74/131/20 78/142/20 69/120/20
f 73/121/24 79/143/24 72/119/24
f 74/131/20 83/144/20 82/145/20
f 71/124/20 83/144/20 76/122/20
f 83/146/23 87/147/23 82/148/23
f 92/149/21 90/150/21 81/151/21
f 84/152/24 86/153/24 90/150/24
f 87/147/20 89/154/20 88/155/20
f 78/156/22 89/154/22 77/157/22
f 80/158/19 85/159/19 79/160/19
f 77/157/21 91/161/21 83/146/21
f 81/162/22 86/163/22 80/164/22
f 82/148/19 88/155/19 78/156/19
f 79/165/23 84/166/23 92/167/23
f 72/119/19 74/131/19 69/120/19
f 76/122/20 68/125/20 67/123/20
f 68/125/21 66/168/21 65/126/21
f 71/124/22 67/123/22 65/127/22
f 70/129/23 66/169/23 68/125/23
f 72/130/23 70/129/23 76/122/23
f 69/120/22 71/124/22 75/128/22
f 66/133/24 70/139/24 75/134/24
f 72/130/24 79/170/24 92/136/24
f 73/132/24 75/128/24 81/137/24
f 70/139/24 92/171/24 81/140/24
f 69/120/20 78/142/20 77/141/20
f 74/131/20 82/145/20 78/142/20
f 73/121/24 80/172/24 79/143/24
f 74/131/20 76/122/20 83/144/20
f 71/124/20 77/141/20 83/144/20
f 83/146/23 91/161/23 87/147/23
f 92/149/21 84/152/21 90/150/21
f 84/152/24 85/159/24 86/153/24
f 87/147/20 91/161/20 89/154/20
f 78/156/22 88/155/22 89/154/22
f 80/158/19 86/153/19 85/159/19
f 77/157/21 89/154/21 91/161/21
f 81/162/22 90/173/22 86/163/22
f 82/148/19 87/147/19 88/155/19
f 79/165/23 85/174/23 84/166/23
